<svg width="297" height="223" viewBox="0 0 297 223" fill="none" xmlns="http://www.w3.org/2000/svg">
<path opacity="0.27" d="M43.5328 98.0086C43.5328 98.0086 16.8993 33.5393 120.753 35.7247C224.606 37.9101 294.862 46.9639 259.244 139.316L165.615 154.732L81.7121 158.449L43.5328 98.0086Z" fill="#E6E6E6"/>
<path d="M44.4239 150.629C44.4239 150.629 25.7946 101.941 48.1364 85.2156C70.4782 68.4906 98.9605 73.4858 97.431 103.569C95.9014 133.651 95.0624 151.186 95.0624 151.186L44.4239 150.629Z" fill="#FFD200"/>
<path opacity="0.08" d="M44.4239 150.629C44.4239 150.629 25.7946 101.941 48.1364 85.2156C70.4782 68.4906 98.9605 73.4858 97.431 103.569C95.9014 133.651 95.0624 151.186 95.0624 151.186L44.4239 150.629Z" fill="black"/>
<path d="M53.8608 150.629C53.8608 150.629 35.224 101.941 57.5733 85.2158C79.9225 68.4908 108.405 73.5157 106.92 103.598C105.435 133.681 104.544 151.216 104.544 151.216L53.8608 150.629Z" fill="#FFD200"/>
<path d="M121.206 95.0425C131.292 103.245 139.341 113.677 144.721 125.519C153.207 144.764 155.479 153.647 132.959 150.607C110.439 147.566 106.727 122.65 121.206 95.0425Z" fill="#1D5DAC"/>
<path opacity="0.46" d="M121.206 95.0425C131.292 103.245 139.341 113.677 144.721 125.519C153.207 144.764 155.479 153.647 132.959 150.607C110.439 147.566 106.727 122.65 121.206 95.0425Z" fill="white"/>
<path d="M67.4414 150.629C67.4414 150.629 45.5599 85.8401 93.9115 86.9699C155.457 88.4566 120.307 151.878 120.307 151.878L67.4414 150.629Z" fill="#1D5DAC"/>
<path d="M105.026 66.5432C105.026 66.5432 106.712 71.4641 106.697 75.0247C106.695 75.3692 106.625 75.7099 106.491 76.0272C106.357 76.3445 106.161 76.632 105.915 76.8732C105.67 77.1144 105.378 77.3045 105.059 77.4325C104.739 77.5604 104.398 77.6238 104.054 77.6189C102.264 77.6189 99.8511 77.0168 98.6334 74.4895L96.0346 70.4532C95.5983 69.5896 95.4403 68.6116 95.5826 67.6544C95.7249 66.6971 96.1605 65.8076 96.8291 65.1086C99.168 62.3583 104.158 63.4881 105.026 66.5432Z" fill="#F4A28C"/>
<path d="M98.0097 70.4531L93.9111 86.9997L103.185 88.6128L102.465 76.2437L98.0097 70.4531Z" fill="#F4A28C"/>
<path d="M94.9138 68.3866L96.3988 74.8982C97.2201 75.01 98.0545 74.8293 98.7561 74.3877C99.4578 73.9461 99.9822 73.2717 100.238 72.4823C100.517 71.6839 100.557 70.8211 100.354 69.9999C100.151 69.1787 99.7133 68.4346 99.0941 67.8588C101.714 67.6098 104.314 67.1801 106.875 66.5728C107.395 66.4167 108.606 66.3796 108.101 64.0752C108.101 64.0752 108.034 60.1653 105.249 59.9349C102.465 59.7044 93.2877 63.1832 94.9138 68.3866Z" fill="#24285B"/>
<path d="M105.896 69.5537L107.989 71.6276L106.482 72.4378L105.896 69.5537Z" fill="#F4A28C"/>
<path d="M145.641 56.6865C157.058 56.6865 166.313 48.9755 166.313 39.4635C166.313 29.9515 157.058 22.2405 145.641 22.2405C134.225 22.2405 124.97 29.9515 124.97 39.4635C124.97 48.9755 134.225 56.6865 145.641 56.6865Z" fill="#24285B"/>
<path d="M131.229 47.3281L123.871 59.8607L135.981 50.859L131.229 47.3281Z" fill="#24285B"/>
<path d="M137.503 42.0206C138.914 42.0206 140.058 40.8758 140.058 39.4636C140.058 38.0513 138.914 36.9065 137.503 36.9065C136.093 36.9065 134.949 38.0513 134.949 39.4636C134.949 40.8758 136.093 42.0206 137.503 42.0206Z" fill="#1D5DAC"/>
<path d="M145.693 42.0206C147.104 42.0206 148.248 40.8758 148.248 39.4636C148.248 38.0513 147.104 36.9065 145.693 36.9065C144.283 36.9065 143.139 38.0513 143.139 39.4636C143.139 40.8758 144.283 42.0206 145.693 42.0206Z" fill="#1D5DAC"/>
<path d="M153.787 42.0206C155.197 42.0206 156.341 40.8758 156.341 39.4636C156.341 38.0513 155.197 36.9065 153.787 36.9065C152.376 36.9065 151.232 38.0513 151.232 39.4636C151.232 40.8758 152.376 42.0206 153.787 42.0206Z" fill="#1D5DAC"/>
<path opacity="0.08" d="M82.5959 98.4025C82.5959 98.4025 93.4438 97.3395 92.5454 111.664C91.647 125.988 87.6152 134.804 98.5522 130.738C109.489 126.671 110.558 111.664 110.558 111.664L130.19 120.011C130.19 120.011 127.963 141.129 120.976 150.629H87.8008L72.4385 136.097L82.5959 98.4025Z" fill="black"/>
<path d="M65.0877 101.034L64.7313 101.777C64.7313 101.777 48.0548 144.37 69.9288 154.554C92.7384 165.117 111.576 116.518 111.576 116.518L104.826 112.898L87.0063 135.599C86.4386 136.32 85.6456 136.83 84.7543 137.047C83.863 137.263 82.9248 137.175 82.0898 136.794C81.2549 136.414 80.5716 135.764 80.1491 134.949C79.7266 134.134 79.5894 133.201 79.7595 132.299C81.0663 125.475 82.8854 117.239 85.2317 109.255C89.0185 96.5367 70.9683 89.1554 65.0877 101.034Z" fill="#1D5DAC"/>
<path opacity="0.46" d="M65.0877 101.034L64.7313 101.777C64.7313 101.777 48.0548 144.37 69.9288 154.554C92.7384 165.117 111.576 116.518 111.576 116.518L104.826 112.898L87.0063 135.599C86.4386 136.32 85.6456 136.83 84.7543 137.047C83.863 137.263 82.9248 137.175 82.0898 136.794C81.2549 136.414 80.5716 135.764 80.1491 134.949C79.7266 134.134 79.5894 133.201 79.7595 132.299C81.0663 125.475 82.8854 117.239 85.2317 109.255C89.0185 96.5367 70.9683 89.1554 65.0877 101.034Z" fill="white"/>
<path d="M235.744 150.629H36.4194V158.449H235.744V150.629Z" fill="#E6E6E6"/>
<path d="M235.744 158.449H36.4194V186.361H235.744V158.449Z" fill="#C9C9C9"/>
<path d="M109.029 150.629L114.85 138.089H150.624L155.465 150.629H109.029Z" fill="#F2F2F2"/>
<path d="M150.623 138.089L146.257 150.629H155.464L150.623 138.089Z" fill="#C9C9C9"/>
<path d="M195.404 71.2559L197.134 81.2686L206.14 81.9302L200.661 65.9114L195.404 71.2559Z" fill="#F4A28C"/>
<path d="M198.56 56.4933C197.775 55.8741 196.848 55.4611 195.863 55.2916C194.878 55.1222 193.867 55.2017 192.92 55.5229C191.974 55.8441 191.123 56.3969 190.444 57.131C189.765 57.8652 189.28 58.7574 189.033 59.7268C187.816 64.3131 186.977 71.0254 192.293 71.5681C200.423 72.408 201.841 61.9047 201.841 61.9047C201.301 59.8179 200.16 57.9362 198.56 56.4933Z" fill="#F4A28C"/>
<path d="M196.992 64.016C196.992 64.016 197.831 61.9123 199.502 63.3618C201.173 64.8113 198.938 67.138 197.638 66.6548C196.339 66.1716 196.992 64.016 196.992 64.016Z" fill="#F4A28C"/>
<path d="M194.966 62.2689C194.966 62.2689 196.666 73.0621 201.893 69.5164C207.12 65.9707 201.99 63.7036 202.561 58.1806C203.133 52.6576 200.23 50.7473 194.141 49.4093C191.342 48.8146 189.649 48.7551 188.417 48.3017C187.886 48.0931 187.31 48.0226 186.745 48.0967C186.179 48.1709 185.641 48.3872 185.181 48.7257C184.722 49.0641 184.355 49.5136 184.116 50.0322C183.877 50.5507 183.773 51.1215 183.813 51.6913C184.259 55.9432 186.754 60.6187 194.966 62.2689Z" fill="#24285B"/>
<path d="M230.093 86.7767C230.093 86.7767 208.405 74.7198 189.107 81.9301C153.98 95.0425 155.925 118.621 180.576 186.183L212.927 186.361L230.093 86.7767Z" fill="#1D5DAC"/>
<path opacity="0.08" d="M196.919 79.9977C196.919 79.9977 198.998 85.1415 195.434 100.068C191.87 114.994 173.233 165.161 173.233 165.161L180.606 186.146H192.375L228.557 85.9369C228.557 85.9369 212.162 77.4852 196.919 79.9977Z" fill="black"/>
<path d="M189.531 186.361C189.531 186.361 182.885 93.9127 222.297 86.7544C261.709 79.5961 274.814 113.514 251.774 186.361H189.531Z" fill="#FFD200"/>
<path d="M199.154 186.361C199.154 186.361 192.471 93.9127 231.92 86.7544C271.369 79.5961 284.437 113.514 261.397 186.361H199.154Z" fill="#FFD200"/>
<path d="M115.466 88.6128L110.558 120.836L134.778 119.818L138.677 88.6128H115.466Z" fill="#FFD200"/>
<path opacity="0.08" d="M199.154 186.361C199.154 186.361 192.471 93.9127 231.92 86.7544C271.369 79.5961 284.437 113.514 261.397 186.361H199.154Z" fill="black"/>
<path d="M106.697 113.864C106.697 113.864 110.046 106.088 114.568 106.876C119.09 107.664 121.993 113.797 111.598 116.503L106.697 113.864Z" fill="#F4A28C"/>
<path d="M89.4194 88.2039L95.1738 83.0303L99.9407 88.0924L97.5721 92.5524L89.4194 88.2039Z" fill="#1D5DAC"/>
<path d="M99.9404 88.0926L102.925 85.2456L104.685 89.1407L102.316 92.5526L99.9404 88.0926Z" fill="#1D5DAC"/>
<path opacity="0.46" d="M89.4194 88.2039L95.1738 83.0303L99.9407 88.0924L97.5721 92.5524L89.4194 88.2039Z" fill="white"/>
<path opacity="0.46" d="M99.9404 88.0926L102.925 85.2456L104.685 89.1407L102.316 92.5526L99.9404 88.0926Z" fill="white"/>
<path d="M192.307 105.397C191.639 92.701 175.542 87.5572 167.582 97.4733C161.427 105.122 157.187 116.384 157.67 132.997C158.672 167.138 135.996 186.361 135.996 186.361H158.962C158.962 186.361 178.512 163.905 189.122 127.422C191.78 118.227 192.582 111.024 192.307 105.397Z" fill="#1D5DAC"/>
<path opacity="0.46" d="M192.307 105.397C191.639 92.701 175.542 87.5572 167.582 97.4733C161.427 105.122 157.187 116.384 157.67 132.997C158.672 167.138 135.996 186.361 135.996 186.361H158.962C158.962 186.361 178.512 163.905 189.122 127.422C191.78 118.227 192.582 111.024 192.307 105.397Z" fill="white"/>
</svg>
