<svg width="295" height="221" viewBox="0 0 295 221" fill="none" xmlns="http://www.w3.org/2000/svg">
<path opacity="0.44" d="M120.463 44.1042H46.4919V97.7557H120.463V44.1042Z" fill="#E6E6E6"/>
<path opacity="0.45" d="M148.304 206.657C214.374 206.657 267.934 202.29 267.934 196.904C267.934 191.517 214.374 187.15 148.304 187.15C82.2342 187.15 28.6741 191.517 28.6741 196.904C28.6741 202.29 82.2342 206.657 148.304 206.657Z" fill="#E6E6E6"/>
<path opacity="0.79" d="M122.971 123.178H77.3491V195.776H122.971V123.178Z" fill="#A5A5A5"/>
<path d="M136.725 123.178H97.2615V195.776H136.725V123.178Z" fill="#E6E6E6"/>
<path d="M143.717 165.78H103.508V185.581H143.717V165.78Z" fill="#F2F2F2"/>
<path d="M124.217 177.669C125.753 177.669 126.998 176.426 126.998 174.892C126.998 173.358 125.753 172.115 124.217 172.115C122.682 172.115 121.437 173.358 121.437 174.892C121.437 176.426 122.682 177.669 124.217 177.669Z" fill="#A5A5A5"/>
<path opacity="0.58" d="M69.7011 185.544C69.7011 185.544 61.6329 183.378 59.8481 175.894C59.8481 175.894 72.3266 173.315 72.7323 186.207L69.7011 185.544Z" fill="#1D5DAC"/>
<path opacity="0.73" d="M70.6821 184.741C70.6821 184.741 65.0181 175.901 69.9446 167.54C69.9446 167.54 79.4657 173.522 75.2915 184.741H70.6821Z" fill="#1D5DAC"/>
<path d="M72.1348 184.741C72.1348 184.741 75.0848 175.334 84.0601 173.522C84.0601 173.522 85.7711 179.614 78.2855 184.741H72.1348Z" fill="#1D5DAC"/>
<path d="M66.2939 184.557L67.9681 195.71H78.2636L79.7312 184.557H66.2939Z" fill="#24285B"/>
<path opacity="0.79" d="M122.971 123.178H77.3491V195.776H122.971V123.178Z" fill="#A5A5A5"/>
<path d="M136.725 123.178H97.2615V195.776H136.725V123.178Z" fill="#E6E6E6"/>
<path d="M143.717 165.78H103.508V185.581H143.717V165.78Z" fill="#F2F2F2"/>
<path d="M124.217 177.669C125.753 177.669 126.998 176.426 126.998 174.892C126.998 173.358 125.753 172.115 124.217 172.115C122.682 172.115 121.437 173.358 121.437 174.892C121.437 176.426 122.682 177.669 124.217 177.669Z" fill="#A5A5A5"/>
<path opacity="0.79" d="M142.795 136.269H102.586V156.07H142.795V136.269Z" fill="#A5A5A5"/>
<path d="M151.202 136.269H110.994V156.07H151.202V136.269Z" fill="#F2F2F2"/>
<path d="M131.695 148.158C133.231 148.158 134.476 146.915 134.476 145.381C134.476 143.847 133.231 142.604 131.695 142.604C130.16 142.604 128.915 143.847 128.915 145.381C128.915 146.915 130.16 148.158 131.695 148.158Z" fill="#A5A5A5"/>
<path opacity="0.58" d="M69.7011 185.544C69.7011 185.544 61.6329 183.378 59.8481 175.894C59.8481 175.894 72.3266 173.315 72.7323 186.207L69.7011 185.544Z" fill="#1D5DAC"/>
<path opacity="0.73" d="M70.6821 184.741C70.6821 184.741 65.0181 175.901 69.9446 167.54C69.9446 167.54 79.4657 173.522 75.2915 184.741H70.6821Z" fill="#1D5DAC"/>
<path d="M72.1348 184.741C72.1348 184.741 75.0848 175.334 84.0601 173.522C84.0601 173.522 85.7711 179.614 78.2855 184.741H72.1348Z" fill="#1D5DAC"/>
<path d="M66.2939 184.557L67.9681 195.71H78.2636L79.7312 184.557H66.2939Z" fill="#24285B"/>
<path d="M210.424 191.673C210.424 191.673 212.009 194.222 214.546 193.883C217.083 193.544 218.234 195.858 216.154 196.97C214.074 198.082 207.651 196.447 207.651 196.447L206.876 191.835L210.424 191.673Z" fill="#1D5DAC"/>
<path d="M167.471 191.673C167.471 191.673 165.886 194.222 163.349 193.883C160.812 193.544 159.661 195.858 161.741 196.97C163.821 198.082 170.244 196.447 170.244 196.447L170.982 191.835L167.471 191.673Z" fill="#1D5DAC"/>
<path d="M196.529 68.51C196.529 68.51 210.483 71.7661 213.492 86.772C216.501 101.778 216.7 114.979 224.893 115.436C233.087 115.892 239.016 84.4957 239.016 84.4957L245.16 86.0869C245.16 86.0869 238.795 154.324 205.549 122.478C172.302 90.6321 196.529 68.51 196.529 68.51Z" fill="#1D5DAC"/>
<path opacity="0.46" d="M196.529 68.51C196.529 68.51 210.483 71.7661 213.492 86.772C216.501 101.778 216.7 114.979 224.893 115.436C233.087 115.892 239.016 84.4957 239.016 84.4957L245.16 86.0869C245.16 86.0869 238.795 154.324 205.549 122.478C172.302 90.6321 196.529 68.51 196.529 68.51Z" fill="white"/>
<path d="M145.789 131.826H105.691V136.269H145.789V131.826Z" fill="#FFD200"/>
<path opacity="0.08" d="M145.789 131.826H105.691V136.269H145.789V131.826Z" fill="black"/>
<path d="M183.21 46.8372C183.21 46.8372 184.183 51.5224 183.755 54.7637C183.715 55.0772 183.612 55.3795 183.454 55.6533C183.295 55.927 183.084 56.1666 182.832 56.3584C182.581 56.5502 182.294 56.6903 181.987 56.7706C181.681 56.8509 181.362 56.8699 181.049 56.8264C179.412 56.5906 177.28 55.795 176.454 53.3493L174.537 49.3713C174.239 48.5346 174.208 47.6263 174.448 46.7715C174.689 45.9166 175.189 45.1572 175.879 44.5977C178.327 42.3509 182.76 43.9568 183.21 46.8372Z" fill="#F4A28C"/>
<path d="M148.864 131.826H108.767V136.269H148.864V131.826Z" fill="#FFD200"/>
<path d="M174.883 50.0933L174.264 65.7548L182.922 65.4749L179.898 54.1965L174.883 50.0933Z" fill="#F4A28C"/>
<path d="M182.052 47.1465C180.589 47.377 179.104 47.4388 177.627 47.3307C178.128 47.9258 178.444 48.6544 178.536 49.4267C178.627 50.199 178.491 50.9813 178.143 51.677C177.819 52.3577 177.268 52.9044 176.584 53.2231C175.9 53.5417 175.127 53.6124 174.397 53.4229L173.755 47.316C173.635 46.4475 173.752 45.5628 174.094 44.7552C174.435 43.9476 174.988 43.2467 175.695 42.7265C176.307 42.27 176.95 41.8565 177.619 41.4889C179.294 40.5755 182.008 41.4447 183.438 40.0672C183.584 39.9305 183.762 39.8337 183.956 39.7863C184.15 39.7389 184.353 39.7424 184.546 39.7965C184.738 39.8507 184.913 39.9536 185.054 40.0952C185.194 40.2369 185.296 40.4125 185.348 40.6049C185.843 42.4245 185.857 45.3859 183.468 46.6972C183.025 46.9264 182.546 47.0784 182.052 47.1465Z" fill="#24285B"/>
<path d="M178.637 51.5003C178.637 51.5003 178.386 49.6808 177.029 49.9828C175.672 50.2848 176.019 52.9295 177.914 52.9295L178.637 51.5003Z" fill="#F4A28C"/>
<path d="M183.637 49.8208L185.179 51.493C185.276 51.584 185.346 51.6994 185.382 51.827C185.419 51.9546 185.42 52.0896 185.386 52.2179C185.352 52.3462 185.284 52.4629 185.189 52.5558C185.094 52.6486 184.976 52.7141 184.847 52.7454L183.07 53.2979L183.637 49.8208Z" fill="#F4A28C"/>
<path opacity="0.31" d="M180.688 56.6348C179.596 56.4879 178.571 56.0272 177.738 55.3088C177.738 55.3088 178.202 58.1376 181.661 60.576L180.688 56.6348Z" fill="#CE8172"/>
<path d="M174.264 65.7548L182.9 65.4749C182.9 65.4749 206.116 65.8432 207.562 82.7423C209.007 99.6414 199.103 112.828 202.399 126.014L170.901 130.036C170.901 130.036 119.283 78.2118 174.264 65.7548Z" fill="#1D5DAC"/>
<path opacity="0.08" d="M170.134 77.1584C170.134 77.1584 180.791 85.6817 173.703 100.953C166.616 116.224 170.989 121.079 181.609 118.257C192.229 115.436 196.529 103.958 196.529 103.958L201.75 120.077C201.701 122.063 201.926 124.046 202.422 125.97L170.923 129.992L169.78 128.799L155.517 108.761L170.134 77.1584Z" fill="black"/>
<path d="M214.922 90.2564L191.857 86.4878L186.755 117.647L209.82 121.416L214.922 90.2564Z" fill="#FFD200"/>
<path opacity="0.08" d="M205.519 106.286C205.519 106.286 209.207 110.419 206.168 113.307C203.13 116.194 198.911 119.635 198.911 119.635L188.343 117.822L205.519 106.286Z" fill="black"/>
<path d="M208.291 87.1498L198.96 85.6252L198.165 90.4816L207.496 92.0062L208.291 87.1498Z" fill="#24285B"/>
<path d="M171.1 88.6282C176.447 78.3149 163.946 68.0016 154.713 75.0294C149.867 78.7127 145.302 84.0977 143.849 91.6044C140.346 109.734 142.374 126.014 154.787 130.758C167.199 135.502 199.538 111.973 199.538 111.973L195.408 105.174C195.408 105.174 167.147 125.366 160.34 111.561C156.055 102.905 166.476 97.5272 171.1 88.6282Z" fill="#1D5DAC"/>
<path opacity="0.46" d="M171.1 88.6282C176.447 78.3149 163.946 68.0016 154.713 75.0294C149.867 78.7127 145.302 84.0977 143.849 91.6044C140.346 109.734 142.374 126.014 154.787 130.758C167.199 135.502 199.538 111.973 199.538 111.973L195.408 105.174C195.408 105.174 167.147 125.366 160.34 111.561C156.055 102.905 166.476 97.5272 171.1 88.6282Z" fill="white"/>
<path d="M196.529 107.045C196.529 107.045 200.674 102.743 204.538 104.901C208.403 107.06 199.538 112.003 199.538 112.003L196.529 107.045Z" fill="#F4A28C"/>
<path d="M170.923 130.036L164.957 191.916L171.019 191.88C171.019 191.88 180.451 145.926 190.976 139.945C201.5 133.963 202.422 126.044 202.422 126.044L170.923 130.036Z" fill="#24285B"/>
<path d="M202.422 126.014L212.636 191.88H206.876C206.876 191.88 198.476 149.462 183.099 139.532L202.422 126.014Z" fill="#24285B"/>
<path d="M240.027 84.7755C240.027 84.7755 239.326 77.4604 243.427 77.9393C247.527 78.4181 245.13 86.1015 245.13 86.1015L240.027 84.7755Z" fill="#F4A28C"/>
<path d="M236.679 64.8457L232.609 67.4592L240.223 79.2907L244.293 76.6771L236.679 64.8457Z" fill="#FFD200"/>
<path opacity="0.08" d="M236.679 64.8457L232.609 67.4592L240.223 79.2907L244.293 76.6771L236.679 64.8457Z" fill="black"/>
<path d="M243.348 71.431L237.094 75.4873L246.964 90.6672L253.217 86.6108L243.348 71.431Z" fill="#24285B"/>
<path d="M218.123 40.4284C215.487 42.1382 213.417 44.5905 212.176 47.4751C210.935 50.3598 210.578 53.5473 211.15 56.6346C211.723 59.7219 213.199 62.5703 215.392 64.8196C217.585 67.0689 220.397 68.618 223.471 69.2712C226.546 69.9244 229.745 69.6522 232.665 68.4891C235.585 67.3259 238.094 65.3241 239.874 62.7368C241.655 60.1494 242.628 57.0927 242.669 53.9532C242.711 50.8137 241.82 47.7323 240.108 45.0989C238.971 43.3503 237.501 41.8424 235.781 40.6613C234.061 39.4803 232.125 38.6492 230.084 38.2155C228.042 37.7818 225.935 37.754 223.883 38.1337C221.831 38.5134 219.874 39.2931 218.123 40.4284ZM232.873 63.1472C231.011 64.3539 228.832 64.982 226.613 64.9521C224.393 64.9222 222.232 64.2356 220.403 62.9791C218.574 61.7227 217.16 59.9528 216.337 57.8932C215.515 55.8336 215.323 53.5768 215.785 51.4081C216.247 49.2394 217.342 47.2562 218.932 45.7092C220.522 44.1621 222.536 43.1208 224.719 42.7167C226.901 42.3126 229.155 42.564 231.194 43.4391C233.234 44.3142 234.968 45.7737 236.177 47.633C236.982 48.8671 237.536 50.2475 237.806 51.6955C238.076 53.1434 238.058 54.6304 237.753 56.0713C237.447 57.5123 236.86 58.8789 236.026 60.0931C235.191 61.3072 234.124 62.345 232.888 63.1472H232.873Z" fill="#FFD200"/>
<path d="M222.445 54.6753L225.948 58.7712L230.926 49.9238" stroke="#1D5DAC" stroke-width="5" stroke-linecap="round" stroke-linejoin="round"/>
<path d="M68.8678 55.4121H58.1372V66.1306H68.8678V55.4121Z" fill="#A5A5A5"/>
<path d="M68.8678 75.8545H58.1372V86.573H68.8678V75.8545Z" fill="#A5A5A5"/>
<path d="M61.6624 60.252L62.776 62.7051L66.3971 59.147" stroke="white" stroke-width="2" stroke-linecap="round" stroke-linejoin="round"/>
<path d="M61.6624 80.7608L62.776 83.2139L66.3971 79.6558" stroke="white" stroke-width="2" stroke-linecap="round" stroke-linejoin="round"/>
<path opacity="0.19" d="M108.884 57.4453H73.6099V63.2134H108.884V57.4453Z" fill="#A5A5A5"/>
<path opacity="0.18" d="M108.884 77.6741H73.6099V83.4422H108.884V77.6741Z" fill="#A5A5A5"/>
</svg>
