<svg width="310" height="232" viewBox="0 0 310 232" fill="none" xmlns="http://www.w3.org/2000/svg">
<path d="M160.425 87.3093C160.425 87.3093 184.318 119.379 205.499 116.286C226.68 113.193 240.893 79.9395 240.893 79.9395L232.368 74.5261C232.368 74.5261 202.011 119.619 175.274 69.1128L160.425 87.3093Z" fill="#1D5DAC"/>
<path opacity="0.08" d="M160.425 87.3093C160.425 87.3093 184.318 119.379 205.499 116.286C226.68 113.193 240.893 79.9395 240.893 79.9395L232.368 74.5261C232.368 74.5261 202.011 119.619 175.274 69.1128L160.425 87.3093Z" fill="black"/>
<path d="M179.126 72.9331C179.126 72.9331 185.814 76.9158 187.573 83.6824C189.332 90.4491 188.96 107.594 175.103 116.162C161.246 124.731 146.32 128.536 148.645 138.589L140.701 134.722L150.582 113.456L173.135 100.727L179.126 72.9331Z" fill="#1D5DAC"/>
<path opacity="0.45" d="M155.17 198.971C225.297 198.971 282.146 191.797 282.146 182.948C282.146 174.098 225.297 166.924 155.17 166.924C85.0434 166.924 28.1943 174.098 28.1943 182.948C28.1943 191.797 85.0434 198.971 155.17 198.971Z" fill="#E6E6E6"/>
<path d="M168.524 175.176C168.524 175.176 171.275 177.496 174.057 176.196C176.84 174.897 179.033 177.086 177.033 179.127C175.034 181.169 167.113 181.656 167.113 181.656L164.874 177.333L168.524 175.176Z" fill="#1D5DAC"/>
<path d="M78.6858 157.404C78.6858 157.404 75.0898 157.28 73.7103 160.018C72.3308 162.756 69.254 162.392 69.5485 159.554C69.843 156.716 75.7485 151.449 75.7485 151.449L80.1893 153.452L78.6858 157.404Z" fill="#1D5DAC"/>
<path d="M188.155 57.0952C188.155 57.0952 188.93 62.3616 188.201 65.9189C188.138 66.2675 188.006 66.6 187.812 66.8969C187.619 67.1938 187.368 67.4492 187.074 67.648C186.78 67.8468 186.449 67.9851 186.101 68.0547C185.753 68.1243 185.395 68.1238 185.047 68.0533C183.257 67.6821 180.939 66.6458 180.195 63.8773L178.351 59.3301C178.078 58.3816 178.107 57.3718 178.435 56.4406C178.762 55.5095 179.372 54.7031 180.18 54.1333C183.055 51.8133 187.86 53.8704 188.155 57.0952Z" fill="#F4A28C"/>
<path d="M182.016 59.1755L168.19 69.7934L174.6 76.9777L181.9 66.6305L182.016 59.1755Z" fill="#F4A28C"/>
<path d="M186.845 57.3892C185.206 57.5437 183.554 57.5073 181.924 57.2809C182.438 57.9762 182.738 58.8067 182.784 59.6698C182.831 60.5329 182.624 61.3908 182.187 62.1375C181.779 62.868 181.129 63.4341 180.349 63.7389C179.568 64.0436 178.706 64.068 177.909 63.8079L177.622 56.9871C177.549 56.0132 177.74 55.0376 178.177 54.1636C178.613 53.2895 179.279 52.5496 180.102 52.0223C180.818 51.5655 181.561 51.1523 182.327 50.7849C184.249 49.8956 187.201 51.0479 188.891 49.6249C189.062 49.4845 189.266 49.3905 189.484 49.3518C189.702 49.3132 189.926 49.3313 190.135 49.4044C190.344 49.4775 190.53 49.6031 190.676 49.769C190.822 49.935 190.922 50.1358 190.968 50.3519C191.386 52.4089 191.193 55.6879 188.449 56.9793C187.941 57.204 187.399 57.3425 186.845 57.3892Z" fill="#24285B"/>
<path d="M182.753 61.9438C182.753 61.9438 182.598 59.9022 181.071 60.1497C179.544 60.3972 179.746 63.3359 181.846 63.4983L182.753 61.9438Z" fill="#F4A28C"/>
<path d="M188.457 60.436L190.045 62.4003C190.136 62.5115 190.196 62.6437 190.222 62.7845C190.247 62.9254 190.237 63.0704 190.191 63.2061C190.146 63.3418 190.067 63.4638 189.961 63.5609C189.856 63.658 189.727 63.7269 189.588 63.7614L187.573 64.2486L188.457 60.436Z" fill="#F4A28C"/>
<path opacity="0.31" d="M181.691 66.9243C181.069 65.9196 180.734 64.7644 180.722 63.5835C180.722 63.5835 177.49 65.6251 179.598 69.8862L181.691 66.9243Z" fill="#CE8172"/>
<path d="M176.638 74.0854C176.638 74.0854 172.996 66.8083 158.271 66.7387C143.546 66.6691 107.485 85.8942 109.965 127.762L140.702 134.722C140.702 134.722 146.382 120.64 164.51 114.616C183.117 108.414 185.791 80.2179 176.638 74.0854Z" fill="white"/>
<path d="M170.43 68.0532C170.43 68.0532 136.33 48.0858 109.841 51.1791C83.3511 54.2724 69.1221 84.8191 69.1221 84.8191L76.7636 90.2324C76.7636 90.2324 103.114 59.7399 119.776 70.5434C136.439 81.3468 165.276 103.511 170.43 68.0532Z" fill="#1D5DAC"/>
<path d="M131.983 74.4023C131.983 74.4023 102.533 89.4823 103.695 126.409L122.295 132.789C122.295 132.789 124.814 95.089 159.883 91.4156C159.883 91.4156 172.856 84.301 174.065 72.5927C174.065 72.5927 175.824 68.2466 162.618 63.9778L131.983 74.4023Z" fill="#1D5DAC"/>
<path d="M177.111 70.8992L176.39 75.2995H178.886L179.126 70.5667L177.111 70.8992Z" fill="white"/>
<path opacity="0.08" d="M173.36 83.52C173.36 83.52 166.563 108.336 147.374 110.664C128.185 112.992 105.803 108.151 105.803 108.151C107.082 103.34 109.053 98.7398 111.654 94.4936C116.033 87.3016 136.524 94.2307 136.524 94.2307L173.36 83.52Z" fill="black"/>
<path d="M174.189 70.8529C174.189 70.8529 172.321 75.7249 174.189 76.4905C175.135 76.8849 176.305 76.2894 177.227 75.6089C177.691 75.2595 178.021 74.7618 178.163 74.1989C178.304 73.636 178.247 73.0418 178.002 72.5155L177.227 70.8142L174.189 70.8529Z" fill="#FFD200"/>
<path d="M176.39 74.0854C176.39 74.0854 177.708 88.3225 157.364 99.5358C137.02 110.749 114.84 99.5358 114.84 99.5358L108.151 88.9798L122.295 86.0024C122.295 86.0024 154.915 99.76 173.771 73.1729L176.39 74.0854Z" fill="#FFD200"/>
<path d="M106.252 127.283C106.252 127.283 101.44 138.326 111.77 144.002C117.862 147.343 128.611 149.099 136.415 149.973C139.421 150.312 142.312 151.322 144.873 152.929C147.435 154.535 149.6 156.697 151.21 159.253L163.37 178.447L170.43 174L163.664 156.716C161.859 152.09 159.147 147.869 155.687 144.301C152.227 140.733 148.089 137.89 143.514 135.937L140.732 134.753L106.252 127.283Z" fill="#24285B"/>
<path d="M129.611 143.067C129.611 143.067 130.13 161.89 113.855 164.72C97.5801 167.55 77.1743 158.023 77.1743 158.023L80.7858 151.573C80.7858 151.573 114.374 161.89 112.049 141.01L129.611 143.067Z" fill="#24285B"/>
<path d="M170.43 67.3883L173.135 65.9963L177.111 70.8993L174.065 74.7659L170.43 67.3883Z" fill="white"/>
<path opacity="0.26" d="M69.1222 84.8423L67.7427 87.9279L74.9734 93.3412L76.7637 90.2556L69.1222 84.8423Z" fill="#1D5DAC"/>
<path d="M77.5542 106.836L75.2679 106.442L76.1902 101.183C76.3457 100.274 76.1348 99.3403 75.6035 98.5856C75.0722 97.8309 74.2635 97.3163 73.3537 97.154L65.0999 95.7156C64.1894 95.556 63.2527 95.7637 62.4956 96.2929C61.7384 96.8222 61.2229 97.6298 61.0622 98.5382L60.1399 103.797L57.8149 103.403L58.7372 98.1438C59.0039 96.629 59.862 95.2815 61.1231 94.3971C62.3843 93.5127 63.9455 93.1637 65.4642 93.4265L73.7334 94.8726C74.4856 95.0035 75.2046 95.2809 75.8493 95.6891C76.494 96.0973 77.0518 96.6282 77.4909 97.2516C77.9299 97.875 78.2415 98.5785 78.408 99.3221C78.5744 100.066 78.5924 100.835 78.4609 101.585L77.5542 106.836Z" fill="#1D5DAC"/>
<path opacity="0.3" d="M77.5542 106.836L75.2679 106.442L76.1902 101.183C76.3457 100.274 76.1348 99.3403 75.6035 98.5856C75.0722 97.8309 74.2635 97.3163 73.3537 97.154L65.0999 95.7156C64.1894 95.556 63.2527 95.7637 62.4956 96.2929C61.7384 96.8222 61.2229 97.6298 61.0622 98.5382L60.1399 103.797L57.8149 103.403L58.7372 98.1438C59.0039 96.629 59.862 95.2815 61.1231 94.3971C62.3843 93.5127 63.9455 93.1637 65.4642 93.4265L73.7334 94.8726C74.4856 95.0035 75.2046 95.2809 75.8493 95.6891C76.494 96.0973 77.0518 96.6282 77.4909 97.2516C77.9299 97.875 78.2415 98.5785 78.408 99.3221C78.5744 100.066 78.5924 100.835 78.4609 101.585L77.5542 106.836Z" fill="white"/>
<path d="M68.5024 88.4927C68.5024 88.4927 61.1554 96.3343 66.2937 98.3836C71.4319 100.433 73.4934 100.363 74.9737 93.3415L68.5024 88.4927Z" fill="#F4A28C"/>
<path d="M89.169 106.375L46.6074 98.9556L41.4817 128.231L84.0433 135.651L89.169 106.375Z" fill="#1D5DAC"/>
<path opacity="0.08" d="M83.8472 105.459C83.8472 105.459 91.884 134.769 42.3847 123.045L41.4702 128.234L84.0332 135.658L89.1637 106.38L83.8472 105.459Z" fill="black"/>
<path opacity="0.4" d="M233.709 75.4002L234.949 72.8018L241.668 77.5655L240.893 79.9396L233.709 75.4002Z" fill="#1D5DAC"/>
<path d="M236.135 73.6445C236.135 73.6445 242.056 66.2901 246.706 68.4786C251.356 70.6671 250.193 74.3482 241.668 77.5653L236.135 73.6445Z" fill="#F4A28C"/>
<path d="M263.56 56.6891C271.762 54.0835 277.898 50.3645 277.265 48.3826C276.633 46.4006 269.472 46.9062 261.27 49.5118C253.068 52.1175 246.932 55.8364 247.564 57.8184C248.196 59.8003 255.358 59.2948 263.56 56.6891Z" fill="#FFD200"/>
<path d="M247.566 57.8145C247.566 57.8145 252.991 80.1406 269.537 75.4001C286.083 70.6595 277.287 48.3721 277.287 48.3721L247.566 57.8145Z" fill="#FFD200"/>
<path opacity="0.08" d="M263.56 56.6891C271.762 54.0835 277.898 50.3645 277.265 48.3826C276.633 46.4006 269.472 46.9062 261.27 49.5118C253.068 52.1175 246.932 55.8364 247.564 57.8184C248.196 59.8003 255.358 59.2948 263.56 56.6891Z" fill="black"/>
<path d="M270.069 71.3731L266.317 72.5649L270.975 87.1627L274.726 85.9709L270.069 71.3731Z" fill="#FFD200"/>
<path d="M280.043 81.0371L264.41 86.0037L268.378 98.4424L284.012 93.4758L280.043 81.0371Z" fill="#24285B"/>
<path d="M276.097 85.9831L268.138 88.491L270.142 94.8238L278.101 92.3159L276.097 85.9831Z" fill="#FFD200"/>
<path opacity="0.3" d="M276.097 85.9831L268.138 88.491L270.142 94.8238L278.101 92.3159L276.097 85.9831Z" fill="white"/>
<path d="M261.95 75.0133L252.96 77.8669C250.874 78.5069 248.619 78.2995 246.685 77.2898C244.751 76.2801 243.294 74.5497 242.632 72.4745C241.969 70.3993 242.154 68.1471 243.146 66.2072C244.138 64.2672 245.857 62.7963 247.93 62.1141L251.216 61.0701L251.991 63.5679L248.705 64.6119C247.997 64.8369 247.34 65.1988 246.772 65.6772C246.204 66.1555 245.735 66.7408 245.394 67.3996C244.704 68.7303 244.573 70.2798 245.028 71.7073C245.483 73.1348 246.488 74.3233 247.822 75.0115C249.155 75.6997 250.708 75.831 252.138 75.3767L261.128 72.5154L261.95 75.0133Z" fill="#FFD200"/>
<path d="M275.164 70.7677L284.154 67.9141C286.248 67.2486 287.992 65.7801 289.001 63.8316C290.011 61.8831 290.203 59.6144 289.536 57.5244C288.869 55.4344 287.398 53.6944 285.445 52.6872C283.492 51.68 281.219 51.4881 279.124 52.1536L275.838 53.1976L276.675 55.68L279.961 54.636C280.669 54.4111 281.415 54.3275 282.156 54.3902C282.897 54.4529 283.618 54.6605 284.278 55.0012C284.938 55.342 285.525 55.8092 286.004 56.3761C286.484 56.943 286.846 57.5986 287.072 58.3055C287.297 59.0123 287.381 59.7565 287.318 60.4956C287.255 61.2347 287.047 61.9542 286.706 62.6131C286.364 63.272 285.896 63.8573 285.328 64.3356C284.76 64.8139 284.103 65.1759 283.394 65.4008L274.35 68.2776L275.164 70.7677Z" fill="#FFD200"/>
<path opacity="0.3" d="M270.871 60.9233C271.08 64.0166 270.87 68.9891 267.708 72.1134C267.708 72.1134 275.784 72.8867 277.396 61.0625C277.466 60.5265 277.4 59.9815 277.202 59.4781C277.005 58.9747 276.684 58.5292 276.268 58.1829C275.852 57.8365 275.355 57.6006 274.823 57.497C274.292 57.3934 273.742 57.4255 273.226 57.5902H273.11C272.414 57.8103 271.813 58.26 271.406 58.8656C270.999 59.4711 270.81 60.1967 270.871 60.9233Z" fill="white"/>
<path d="M243.351 41.6401L242.783 43.0791L250.362 46.0579L250.93 44.6189L243.351 41.6401Z" fill="#C9C9C9"/>
<path d="M251.768 33.6401L250.374 34.3145L253.925 41.6289L255.32 40.9545L251.768 33.6401Z" fill="#C9C9C9"/>
<path d="M262.481 34.8907L259.793 42.5308L261.25 43.0412L263.938 35.4011L262.481 34.8907Z" fill="#C9C9C9"/>
</svg>
